<?xml version="1.0" encoding="UTF-8"?>
<svg width="151px" height="38px" viewBox="0 0 151 38" version="1.1" xmlns="http://www.w3.org/2000/svg">
    <title>MongoDB</title>
    <g id="img_mdb_logo" stroke="none" stroke-width="1" fill="none" fill-rule="evenodd">
        <path d="M17.5652207,14.958257 C15.466214,6.22258319 11.0913413,3.89703662 9.9753443,2.25311576 C9.51515779,1.52892843 9.10749371,0.776167051 8.75515103,-1.42108547e-14 C8.69619787,0.776044464 8.58788858,1.26495248 7.8886767,1.85345286 C6.48476893,3.03433385 0.522273934,7.61816982 0.0204865876,17.5437785 C-0.447025667,26.7981087 7.23196594,32.5046224 8.24650866,33.0944162 C9.02660976,33.4565702 9.97671531,33.1021766 10.4401145,32.7697709 C14.1418245,30.3730869 19.1994571,23.9836542 17.5693337,14.958257" id="Path" fill="#10AA50"></path>
        <path d="M9.07322388,28.1665338 C8.87991236,30.4571584 8.74144099,31.7880746 8.25062167,33.097003 C8.25062167,33.097003 8.57280754,35.2776879 8.79902315,37.5877136 L9.59968929,37.5877136 C9.7906748,35.9610212 10.0822819,34.3462507 10.4730186,32.7516632 C9.43653986,32.2705156 9.11298299,30.176489 9.07322388,28.1665338 Z" id="Path" fill="#B8C4C2"></path>
        <path d="M10.4716476,32.7529566 L10.4716476,32.7529566 C9.42420082,32.2963838 9.12120901,30.1583813 9.07459488,28.1665338 C9.33363243,24.8808375 9.40914212,21.5845542 9.30081049,18.291368 C9.24597034,16.5633757 9.32685956,2.28674435 8.84975028,0.196597931 C9.17611924,0.904509269 9.55215103,1.5911065 9.9753443,2.25182235 C11.0913413,3.89703662 15.467585,6.22258319 17.5652207,14.958257 C19.1994571,23.9681333 14.1692446,30.3407517 10.4716476,32.7529566 Z" id="Path" fill="#12924F"></path>
        <path d="M148.531718,29.5944556 C147.279681,29.5943421 146.263171,28.6396339 146.257441,27.4584716 C146.251759,26.2773093 147.259003,25.3139002 148.510987,25.3030208 C149.762972,25.2921414 150.788855,26.2378833 150.806213,27.4189443 C150.822685,27.9953706 150.589391,28.5532272 150.160171,28.9637675 C149.730952,29.3743078 149.142895,29.6020578 148.531718,29.5944556 L148.531718,29.5944556 Z M148.531718,25.4969409 C147.693669,25.4917077 146.934948,25.9636592 146.609878,26.6923949 C146.284808,27.4211307 146.457524,28.2628712 147.047368,28.8245252 C147.637213,29.3861792 148.527809,29.5569326 149.303251,29.2570437 C150.078693,28.9571548 150.585985,28.2457917 150.588224,27.4551597 C150.599004,26.9359057 150.38643,26.4346655 149.998972,26.0657252 C149.611514,25.6967849 149.0822,25.4915953 148.531718,25.4969409 L148.531718,25.4969409 Z M149.08012,28.8054771 L148.49333,27.611662 L148.020334,27.611662 L148.020334,28.8054771 L147.676212,28.8054771 L147.676212,26.0893215 L148.524863,26.0893215 C149.156896,26.0893215 149.420129,26.348003 149.420129,26.8485516 C149.420129,27.2469211 149.221333,27.4952554 148.851162,27.5715664 L149.457146,28.8015969 L149.08012,28.8054771 Z M148.034044,27.3309926 L148.531718,27.3309926 C148.934793,27.3309926 149.088346,27.2016519 149.088346,26.8550187 C149.088346,26.5083855 148.941648,26.3906854 148.487846,26.3906854 L148.034044,26.3906854 L148.034044,27.3309926 Z" id="Shape" fill="#21313C"></path>
        <path d="M114.680266,27.6388236 C115.295847,28.1031568 116.525637,28.2945812 117.610101,28.2945812 C119.01538,28.2945812 120.393239,28.0488337 121.739564,26.9015813 C123.110568,25.725874 124.053818,23.9267442 124.053818,21.0540863 C124.053818,18.2939548 122.940563,16.0537731 120.656471,14.742258 C119.367728,13.9778542 117.697845,13.6764903 115.793521,13.6764903 C115.24512,13.6764903 114.680266,13.7036518 114.359451,13.840753 C114.227926,13.9387011 114.134807,14.0752536 114.094848,14.2287752 C114.037266,14.7202701 114.037266,18.4633912 114.037266,20.6764113 C114.037266,22.945048 114.037266,26.1087226 114.094848,26.4967448 C114.12501,26.8252703 114.300498,27.40213 114.680266,27.6439972 M108.834307,12.4477532 C109.331981,12.4477532 111.223966,12.5292379 112.10415,12.5292379 C113.749355,12.5292379 114.885917,12.4477532 117.961078,12.4477532 C120.538565,12.4477532 122.707493,13.1035108 124.258098,14.3594094 C126.133631,15.8908038 127.137206,18.0210459 127.137206,20.6169146 C127.137206,24.3057126 125.354901,26.4372481 123.562999,27.6388236 C121.780694,28.8960156 119.462327,29.6060963 116.159579,29.6060963 C114.401953,29.6060963 111.384373,29.5517732 108.86584,29.5246116 L108.813742,29.5246116 C108.695835,29.3060258 109.028989,28.4536703 109.23464,28.4316823 C109.920142,28.3592515 110.101114,28.3333834 110.416445,28.2105097 C110.948394,28.0048579 111.073156,27.7487632 111.132109,26.8472582 C111.219853,25.1528945 111.191062,23.1312987 111.191062,20.8355004 C111.191062,19.1967532 111.219853,15.99945 111.162271,14.9880054 C111.073156,14.1421169 110.694759,13.9235311 109.928368,13.7592683 C109.384882,13.6503525 108.835731,13.5683247 108.283163,13.5135209 C108.225581,13.3492582 108.67527,12.6081357 108.821968,12.4477532" id="Shape" fill="#21313C"></path>
        <path d="M134.39667,13.834286 C134.280135,13.8614475 134.133437,14.1356499 134.133437,14.2714577 C134.103275,15.2557408 134.074484,17.8231545 134.074484,19.5990029 C134.089647,19.6684079 134.147474,19.7224522 134.221182,19.7361041 C134.60095,19.7632657 135.538716,19.7917206 136.329785,19.7917206 C137.44304,19.7917206 138.087412,19.6546195 138.438389,19.4903567 C139.376156,19.053185 139.809393,18.0960635 139.809393,17.0587507 C139.809393,14.6814678 138.051766,13.7799629 135.445488,13.7799629 C135.093161,13.7757637 134.740933,13.7939123 134.391186,13.834286 M141.040554,24.7635788 C141.040554,22.3591344 139.165021,20.9932962 135.737512,20.9932962 C135.592185,20.9932962 134.503608,20.9661346 134.244489,21.0204577 C134.156745,21.0476193 134.069,21.1019424 134.069,21.1575589 C134.069,22.8790842 134.038838,25.6379223 134.127953,26.7308516 C134.186907,27.1951848 134.539255,27.8509424 134.976605,28.0423667 C135.445488,28.2881141 136.49979,28.3424372 137.231906,28.3424372 C139.252765,28.3424372 141.040554,27.2779629 141.040554,24.7635788 M129.104596,12.4956093 C129.3692,12.4956093 130.14793,12.5770939 132.139998,12.5770939 C134.01416,12.5770939 135.537345,12.5227708 137.349812,12.5227708 C139.605113,12.5227708 142.709065,13.288468 142.709065,16.4573163 C142.709065,18.0094052 141.538228,19.2717709 140.015043,19.8732053 C139.927299,19.9003669 139.927299,19.95469 140.015043,19.9818515 C142.1826,20.4992145 144.085553,21.7577 144.085553,24.1621444 C144.085553,26.5122657 142.533577,27.9880436 140.278276,28.9167101 C138.907272,29.490983 137.203115,29.6811139 135.479763,29.6811139 C134.162229,29.6811139 130.630523,29.5517732 128.667246,29.5724677 C128.461595,29.490983 128.855073,28.6153462 129.030562,28.4795384 C129.48035,28.4664928 129.926645,28.400448 130.359064,28.2829405 C131.061018,28.1199711 131.144649,27.9065589 131.232394,26.9222759 C131.291347,26.075094 131.291347,23.0420535 131.291347,20.8833565 C131.291347,17.9318007 131.321509,15.9386599 131.291347,14.9543768 C131.262556,14.189973 130.969161,13.9429322 130.412533,13.8071244 C129.973812,13.7243463 129.241696,13.6428617 128.656278,13.561377 C128.50958,13.4242758 128.960641,12.6042555 129.105967,12.4956093" id="Shape" fill="#21313C"></path>
        <path d="M24.0514391,29.5944556 C23.9760031,29.4195614 23.9454674,29.2303189 23.9623238,29.0421707 C23.9557532,28.9139221 23.9865753,28.7864282 24.0514391,28.6735495 C24.4302716,28.6220075 24.8056363,28.5498879 25.1756621,28.4575505 C25.6939015,28.3359702 25.888584,28.0695283 25.9187461,27.4461059 C26.0037483,25.9729148 26.0092323,23.2089031 25.9790702,21.2662051 L25.9790702,21.2092952 C25.9790702,20.9997632 25.9790702,20.7152136 25.7048695,20.5147354 C25.222931,20.2294897 24.6997083,20.0116569 24.1515223,19.8680317 C23.9061127,19.7994811 23.7703833,19.6779008 23.7772383,19.535626 C23.7840934,19.3933512 23.9390168,19.2252082 24.2584606,19.1657114 C25.1071119,19.0842268 27.3308799,18.5836781 28.2042092,18.2034163 C28.2941379,18.3139788 28.3358319,18.4528055 28.3207445,18.5914385 C28.3207445,18.6768034 28.3070345,18.7673419 28.2974375,18.8604673 C28.2727594,19.1346697 28.2453393,19.4463809 28.2453393,19.7567986 C28.256293,19.8337162 28.3124847,19.8981424 28.3903813,19.9230953 C28.4682778,19.9480482 28.5544344,19.9292211 28.6127683,19.8744987 C30.2757958,18.6444682 31.7660768,18.2060031 32.5297258,18.2060031 C33.7869362,18.2060031 34.7658328,18.7725156 35.5239979,19.9391691 C35.5593487,19.9964445 35.6237636,20.0322199 35.6940023,20.0335878 C35.7577322,20.0330271 35.8171358,20.0030739 35.8530387,19.9533966 C37.3817078,18.8591739 38.8966669,18.2060031 39.9112096,18.2060031 C42.3077241,18.2060031 43.7404229,19.8990735 43.7404229,22.7329292 C43.7404229,23.5477758 43.7321969,24.5812084 43.7239709,25.5447969 C43.7171158,26.3906854 43.7102608,27.1835442 43.7102608,27.7319489 C43.7102608,27.8612897 43.8994593,28.233791 44.1832571,28.3075152 C44.534234,28.4691912 45.0401344,28.5519692 45.6803931,28.6554418 L45.7050712,28.6554418 C45.7530563,28.8184112 45.651602,29.4508874 45.5542608,29.5802281 C45.3952244,29.5802281 45.1758638,29.5672941 44.901663,29.55436 C44.4039887,29.5310787 43.7212289,29.4987435 42.9274177,29.4987435 C41.3343115,29.4987435 40.5021122,29.5271984 39.7069301,29.5763479 C39.6466059,29.3888038 39.6260409,28.7834892 39.6987041,28.6567352 C40.0280001,28.6081544 40.353956,28.5412111 40.6748587,28.4562571 C41.18213,28.2984614 41.3288274,28.0811689 41.3603605,27.4461059 C41.3726996,26.9947067 41.4645568,23.0174788 41.3014074,22.0732914 C41.150597,21.0941819 40.3691249,19.9482229 38.6594833,19.9482229 C38.0247086,19.9482229 37.0005688,20.1978506 36.0244142,20.8962906 C35.9638653,20.9610382 35.9298295,21.0440639 35.9284439,21.1303973 L35.9284439,21.1497985 C36.0436083,21.659401 36.0436083,22.2543684 36.0436083,23.1532866 C36.0436083,23.6706496 36.0436083,24.2100005 36.0367532,24.7493514 C36.0298982,25.8461609 36.0244142,26.8808868 36.0436083,27.6633983 C36.0436083,28.1962822 36.3849882,28.3243295 36.6605599,28.4265087 C36.8099993,28.4575505 36.9279056,28.484712 37.0471829,28.5105802 C37.2761406,28.5636099 37.5146952,28.617933 37.8697852,28.6709627 C37.9223482,28.8981794 37.9176523,29.1338628 37.8560751,29.3590555 C37.8415453,29.4435679 37.8063392,29.5237232 37.7532498,29.5931622 C36.8675815,29.5647073 35.958606,29.5401325 34.6465555,29.5401325 C34.2489644,29.5401325 33.6004797,29.5556534 33.0274002,29.5698809 C32.5626299,29.5815216 32.1239087,29.5931622 31.8743861,29.5944556 C31.8069034,29.4442258 31.7768841,29.2813844 31.7866418,29.1184817 C31.7726354,28.9649894 31.8044552,28.8108631 31.8784991,28.6735495 L32.230847,28.6127594 C32.5379518,28.5610231 32.8039266,28.5170472 33.0534492,28.4575505 C33.4866864,28.3282097 33.6498358,28.1057437 33.6813689,27.5845005 C33.7663711,26.3686975 33.8321793,22.8648567 33.6498358,21.9879265 C33.339989,20.5806992 32.4913377,19.8667383 31.1258181,19.8667383 C30.3265229,19.8667383 29.3160932,20.2301858 28.490749,20.8135125 C28.3302543,20.9609396 28.2422905,21.1648861 28.2480813,21.3761448 C28.2480813,21.7939154 28.2480813,22.2905838 28.2480813,22.8234677 C28.2480813,24.5825018 28.2357423,26.7722406 28.2809854,27.7190148 C28.3084055,28.0113249 28.4180858,28.3579581 28.9980203,28.484712 C29.1255237,28.519634 29.3448843,28.5532626 29.599891,28.5933583 C29.7465884,28.6166396 29.9069958,28.6412143 30.0728872,28.6696693 C30.1256254,28.9793907 30.0988263,29.2965287 29.99474,29.5944556 C29.7397333,29.5944556 29.4257735,29.5789347 29.0665705,29.5647073 C28.5181691,29.5414259 27.8326672,29.512971 27.0580501,29.512971 C26.1422197,29.512971 25.504703,29.5414259 24.9933186,29.5647073 C24.6491967,29.5802281 24.3516889,29.5931622 24.0541811,29.5944556" id="Path" fill="#21313C"></path>
        <path d="M53.452613,19.3752434 C52.9577843,19.3655496 52.4710561,19.4947504 52.0541892,19.7464514 C51.0369045,20.3297781 50.5186651,21.4951382 50.5186651,23.2076097 C50.5186651,26.4126733 52.2200807,28.6515616 54.6563542,28.6515616 C55.3095884,28.6711027 55.9467417,28.4582738 56.441401,28.0553008 C57.189969,27.4797345 57.5875601,26.3027337 57.5875601,24.6549326 C57.5875601,21.4977251 55.9245326,19.3752434 53.449871,19.3752434 M53.9187542,29.840203 C49.5178324,29.840203 47.9507752,26.7942285 47.9507752,23.9448519 C47.9507752,21.9542979 48.8131365,20.3983287 50.5145521,19.3183335 C51.7062397,18.6223414 53.0741093,18.240879 54.4753817,18.2137636 C57.8329697,18.2137636 60.178757,20.4914541 60.178757,23.754721 C60.178757,25.9716214 59.2423615,27.7228951 57.4696538,28.8171178 C56.6182605,29.3086126 55.1389475,29.840203 53.9187542,29.840203" id="Shape" fill="#21313C"></path>
        <path d="M98.2570132,19.3752434 C97.7612032,19.364641 97.2733228,19.4938941 96.8558474,19.7464514 C95.8385627,20.3297781 95.3203233,21.4951382 95.3203233,23.2076097 C95.3203233,26.4126733 97.0217389,28.6515616 99.4580124,28.6515616 C100.113118,28.6724143 100.752477,28.4595028 101.248543,28.0553008 C101.997111,27.4797345 102.393331,26.3027337 102.393331,24.6549326 C102.393331,21.4977251 100.731675,19.3752434 98.2570132,19.3752434 M98.7258965,29.840203 C94.3249747,29.840203 92.7579175,26.7942285 92.7579175,23.9461453 C92.7579175,21.9530045 93.6202788,20.3983287 95.3230653,19.3183335 C96.5140497,18.621921 97.8816049,18.2404142 99.282524,18.2137636 C102.640112,18.2137636 104.985899,20.4927475 104.985899,23.7534276 C104.985899,25.9729148 104.049504,27.7228951 102.276796,28.8158243 C101.425403,29.3086126 99.9460897,29.840203 98.7258965,29.840203" id="Shape" fill="#21313C"></path>
        <path d="M83.4392054,19.2665972 C82.0832828,19.2665972 81.2058405,20.2767484 81.2058405,21.840478 C81.2058405,23.4042076 81.9612635,25.2628341 84.0849482,25.2628341 C84.4496352,25.2628341 85.1104589,25.110212 85.4381288,24.7700459 C85.9316901,24.341928 86.260731,23.4572373 86.260731,22.5233972 C86.260731,20.4836936 85.2078002,19.2665972 83.4460605,19.2665972 M83.270572,30.0587889 C82.8875049,30.0548455 82.5098024,30.1439269 82.173769,30.3174704 C81.1002732,30.9641741 80.6025988,31.6108778 80.6025988,32.3623475 C80.6025988,33.0659612 80.8918806,33.6260066 81.5143163,34.1226751 C82.2683683,34.7254029 83.285653,35.0190064 84.6223816,35.0190064 C87.2533377,35.0190064 88.4324008,33.68421 88.4324008,32.3623475 C88.4324008,31.4414415 87.9429525,30.8244861 86.9352648,30.4752661 C86.1592767,30.2075308 84.8623073,30.0600823 83.274685,30.0600823 M83.4501735,36.3977788 C81.8707772,36.3977788 80.7328442,36.0834808 79.7608026,35.3772803 C78.81481,34.6891875 78.3897989,33.6673957 78.3897989,32.9611952 C78.400034,32.5060989 78.5840575,32.0697823 78.9080383,31.7324581 C79.182239,31.4375612 79.8197557,30.8852763 81.2935847,29.9294482 C81.3402922,29.9107121 81.3705461,29.8673901 81.3703609,29.8195085 C81.3713293,29.7656671 81.3326027,29.7183869 81.2771326,29.7056887 C80.0637944,29.2672235 79.6977364,28.541622 79.5866851,28.1535997 C79.5866851,28.1393723 79.5866851,28.1173843 79.5743461,28.0928096 C79.540071,27.9401875 79.5071669,27.7953259 79.7278985,27.646584 C79.8979029,27.5327642 80.1693617,27.3801421 80.4600144,27.2184662 C80.8703114,27.0042002 81.2638753,26.7625815 81.6377066,26.4954514 C81.6784333,26.4541636 81.6966195,26.3974219 81.6869652,26.3417626 C81.6773109,26.2861034 81.6409025,26.2377897 81.5883505,26.2109018 C79.7923357,25.6418025 78.8874732,24.3833171 78.8874732,22.4600202 C78.8762864,21.2428188 79.4955486,20.0970851 80.5463877,19.3907643 C81.2689066,18.8514134 83.0827445,18.2034163 84.2576946,18.2034163 L84.3262448,18.2034163 C85.5340991,18.2305779 86.2154879,18.4698582 87.1587384,18.7983837 C87.6952967,18.9814146 88.2638414,19.066566 88.8341049,19.0493048 C89.8335666,19.0493048 90.2709168,18.7505277 90.6465718,18.4026011 C90.7074889,18.5593164 90.7399346,18.7246068 90.742542,18.8915091 C90.7654918,19.2891937 90.6509878,19.6831611 90.4162432,20.0141867 C90.2119636,20.2819221 89.7307413,20.4759332 89.2906491,20.4759332 C89.245406,20.4759332 89.2015339,20.4759332 89.1535488,20.4694661 C88.9219799,20.4540846 88.6924637,20.4181413 88.4680469,20.3621133 L88.3556246,20.3996221 C88.3199785,20.4487716 88.3432856,20.5030947 88.3720767,20.5729387 C88.3791077,20.5865923 88.3846211,20.6008961 88.3885287,20.6156212 C88.4687704,20.9608198 88.5232869,21.3108962 88.5516782,21.6632812 C88.5516782,23.6745298 87.7112529,24.5501666 86.8022775,25.1994571 C85.9234633,25.8215359 84.879779,26.20285 83.7860694,26.3014403 L83.7860694,26.3014403 C83.7627623,26.3014403 83.648969,26.3104941 83.4350924,26.3286018 C83.2979921,26.3402425 83.1197616,26.3557634 83.0937125,26.3557634 L83.0676634,26.3557634 C82.8702389,26.4074997 82.3547415,26.6390196 82.3547415,27.0697243 C82.3547415,27.4267048 82.5878122,27.8703435 83.7024381,27.9505348 L84.4235861,27.9983908 C85.893302,28.0953964 87.729076,28.2156833 88.5928083,28.4911791 C89.767971,28.8810221 90.5456188,29.9379353 90.5218104,31.112916 C90.5218104,32.9172193 89.1617748,34.6141699 86.8845377,35.6514827 C85.8106416,36.1353931 84.6347895,36.3843116 83.4446895,36.3796711" id="Shape" fill="#21313C"></path>
        <path d="M76.7130614,28.6321605 C76.0686897,28.5506758 75.5984354,28.4678977 75.0431789,28.2221503 C74.9342165,28.1156693 74.8624463,27.980253 74.8375284,27.8341281 C74.7785752,26.9869462 74.7785752,24.5281787 74.7785752,22.9191798 C74.7785752,21.6063713 74.5455046,20.4617057 73.955973,19.640392 C73.2526481,18.710432 72.2572994,18.1646141 70.968556,18.1646141 C69.8265099,18.1646141 68.3033248,18.9018563 67.0447434,19.9133009 C67.0145814,19.9404625 66.8212698,20.1137791 66.8253829,19.8447503 C66.8294959,19.5757216 66.873368,19.0299037 66.9007881,18.6806837 C66.925482,18.4925438 66.8542885,18.3044844 66.7088475,18.1736679 C65.8862453,18.5616902 63.5788461,19.0790531 62.7247109,19.157951 C62.1022752,19.2717709 61.9446098,19.8369899 62.6095465,20.0322944 L62.6191436,20.0322944 C63.1514043,20.1707583 63.6594415,20.3816429 64.1272476,20.6583036 C64.3904803,20.8497279 64.3616892,21.1226369 64.3616892,21.3412228 C64.3904803,23.1713943 64.3904803,25.9858489 64.3027361,27.5159499 C64.273945,28.1173843 64.0970855,28.3359702 63.6282023,28.4459098 L63.6720744,28.4316823 C63.3150169,28.5160974 62.9528652,28.5800227 62.5876105,28.6231066 C62.4409131,28.7589144 62.4409131,29.5517732 62.5876105,29.7160359 C62.8810053,29.7160359 64.3699153,29.6345513 65.6038186,29.6345513 C67.3011211,29.6345513 68.1799345,29.7160359 68.6200267,29.7160359 C68.7968862,29.5246116 68.8544683,28.7873694 68.737933,28.6231066 C68.3323905,28.6058051 67.9296482,28.5507841 67.5355628,28.4588439 C67.0680505,28.3501977 66.9501442,28.1303184 66.9213531,27.640117 C66.863771,26.35447 66.863771,23.6227935 66.863771,21.764167 C66.863771,21.246804 67.0090974,20.9997632 67.1845858,20.8587818 C67.7700044,20.367287 68.737933,20.0400549 69.5865843,20.0400549 C70.4091865,20.0400549 70.9575879,20.2858023 71.3688891,20.6130344 C71.847956,21.007396 72.1482961,21.5601896 72.2079433,22.1573628 C72.3244786,23.1920888 72.2943165,25.2731814 72.2943165,27.0723111 C72.2943165,28.0565942 72.2079433,28.303635 71.8268043,28.4122812 C71.6513158,28.4937659 71.1824326,28.576544 70.6258051,28.6308671 C70.4503166,28.7951298 70.5078987,29.5595336 70.6258051,29.7237964 C71.3867121,29.7237964 72.2710095,29.6423117 73.5542689,29.6423117 C75.1651982,29.6423117 76.190709,29.7237964 76.6006391,29.7237964 C76.7761276,29.5323721 76.8350807,28.8184112 76.7185454,28.6308671" id="Path" fill="#21313C"></path>
    </g>
</svg>
